<?xml version="1.0" standalone="no"?>
<!DOCTYPE svg PUBLIC "-//W3C//DTD SVG 20010904//EN"
 "http://www.w3.org/TR/2001/REC-SVG-20010904/DTD/svg10.dtd">
<svg version="1.0" xmlns="http://www.w3.org/2000/svg"
 width="300.000000pt" height="300.000000pt" viewBox="0 0 300.000000 300.000000"
 preserveAspectRatio="xMidYMid meet">
<metadata>
Created by potrace 1.11, written by Peter Selinger 2001-2013
</metadata>
<g transform="translate(0.000000,300.000000) scale(0.100000,-0.100000)"
fill="#000000" stroke="none">
<path d="M1185 2396 c-149 -53 -282 -205 -477 -546 -113 -198 -140 -240 -153
-240 -5 0 -32 7 -60 16 -75 23 -176 40 -247 43 -130 5 -228 -60 -228 -150 0
-107 128 -201 263 -193 84 5 210 75 295 163 l43 44 117 -36 c137 -43 194 -56
263 -61 54 -4 173 17 194 34 10 8 14 2 19 -24 7 -38 28 -51 57 -36 22 13 25
47 5 69 -21 24 -8 67 30 100 41 36 104 46 236 37 95 -7 110 -9 188 -25 25 -6
86 -18 135 -28 50 -10 89 -22 89 -27 -1 -4 -24 -38 -52 -74 -52 -70 -131 -203
-227 -387 -153 -291 -247 -416 -327 -432 -21 -4 -28 -11 -28 -28 0 -44 76 -48
141 -7 77 49 142 144 286 415 144 273 208 376 282 456 43 46 40 45 126 26 6
-2 37 -8 70 -15 323 -63 483 -68 637 -20 80 25 128 62 128 100 0 61 -70 57
-96 -5 -14 -33 -32 -46 -89 -63 -43 -12 -213 -10 -285 4 -41 8 -84 16 -95 18
-41 8 -233 57 -320 81 -257 73 -502 115 -636 110 -72 -3 -144 -29 -183 -68
l-24 -24 -5 57 c-8 73 -14 88 -40 96 -14 4 -25 1 -34 -12 -17 -24 -17 -30 7
-52 34 -32 31 -153 -6 -189 -45 -46 -185 -56 -313 -23 -104 27 -211 63 -211
72 0 4 18 33 41 65 22 32 73 112 111 178 39 66 91 147 114 181 41 57 46 61 86
62 164 7 358 158 358 279 0 46 -32 68 -99 69 -31 0 -70 -5 -86 -10z m130 -56
c10 -16 -35 -92 -82 -137 -52 -51 -124 -90 -185 -99 l-43 -7 35 39 c78 86 144
148 192 180 52 35 72 41 83 24z m-909 -735 c42 -9 87 -20 101 -26 l25 -9 -52
-47 c-112 -101 -180 -137 -254 -135 -99 2 -160 47 -160 120 0 28 7 42 38 68
63 54 141 62 302 29z"/>
</g>
</svg>
